<svg width="800" height="240" viewBox="0 0 800 240" fill="none" xmlns="http://www.w3.org/2000/svg">
<g clip-path="url(#clip0_134_120)">
<path d="M794.905 210.109C794.905 213.093 794.316 216.048 793.173 218.805C792.03 221.562 790.355 224.066 788.243 226.175C786.131 228.284 783.625 229.956 780.866 231.096C778.107 232.236 775.151 232.821 772.166 232.818H28.0463C22.0152 232.824 16.2285 230.435 11.9588 226.177C7.68917 221.918 5.28618 216.139 5.27832 210.109V29.0156C5.28618 22.9833 7.68822 17.2007 11.957 12.9375C16.2258 8.67429 22.0125 6.27891 28.0463 6.27734H772.16C775.147 6.27734 778.104 6.86553 780.863 8.0083C783.622 9.15108 786.129 10.8261 788.241 12.9376C790.352 15.0491 792.027 17.5558 793.169 20.3145C794.312 23.0732 794.899 26.0298 794.899 29.0156L794.905 210.109Z" fill="white"/>
<path d="M772.166 238.1H28.0463C20.6167 238.099 13.4911 235.151 8.23306 229.903C2.97506 224.655 0.0141366 217.536 0 210.109L0 29.0211C0.0109911 21.5897 2.96996 14.4661 8.22779 9.21304C13.4856 3.95993 20.613 1.00627 28.0463 1L772.16 1C779.593 1.0094 786.718 3.96407 791.975 9.2165C797.233 14.4689 800.192 21.5907 800.207 29.0211V210.109C800.218 225.548 787.616 238.1 772.166 238.1Z" fill="#A6A6A6"/>
<path d="M794.905 210.109C794.905 213.093 794.316 216.048 793.173 218.805C792.03 221.562 790.355 224.066 788.243 226.175C786.131 228.284 783.625 229.956 780.866 231.096C778.107 232.236 775.151 232.821 772.166 232.818H28.0463C22.0152 232.824 16.2285 230.435 11.9588 226.177C7.68917 221.918 5.28618 216.139 5.27832 210.109V29.0156C5.28618 22.9833 7.68822 17.2007 11.957 12.9375C16.2258 8.67429 22.0125 6.27891 28.0463 6.27734H772.16C775.147 6.27734 778.104 6.86553 780.863 8.0083C783.622 9.15108 786.129 10.8261 788.241 12.9376C790.352 15.0491 792.027 17.5558 793.169 20.3145C794.312 23.0732 794.899 26.0298 794.899 29.0156L794.905 210.109Z" fill="black"/>
<path d="M178.68 118.302C178.508 99.1923 194.331 89.8954 195.055 89.4626C186.094 76.4007 172.204 74.616 167.323 74.4737C155.657 73.2464 144.342 81.4523 138.399 81.4523C132.338 81.4523 123.187 74.5923 113.324 74.7939C100.632 74.9896 88.7589 82.3358 82.247 93.7434C68.808 117.003 78.8309 151.185 91.7065 169.986C98.1472 179.2 105.673 189.475 115.524 189.114C125.162 188.722 128.762 182.977 140.392 182.977C151.915 182.977 155.296 189.114 165.342 188.882C175.685 188.722 182.197 179.633 188.413 170.342C195.856 159.794 198.845 149.394 198.963 148.861C198.726 148.778 178.882 141.2 178.68 118.302ZM159.702 62.1056C164.885 55.625 168.432 46.8084 167.448 37.8613C159.945 38.1934 150.563 43.0493 145.16 49.3876C140.38 54.9728 136.11 64.1274 137.213 72.7365C145.64 73.365 154.293 68.4853 159.702 62.1056Z" fill="white"/>
<path d="M772.166 1H373.593L529.707 238.1H772.166C779.597 238.094 786.723 235.142 791.981 229.891C797.238 224.641 800.198 217.52 800.213 210.091V29.0211C800.2 21.5902 797.24 14.4675 791.983 9.21477C786.725 3.962 779.599 1.00784 772.166 1Z" fill="url(#paint0_linear_134_120)"/>
<path d="M318.271 187.792H304.803L297.425 164.615H271.781L264.753 187.792H251.64L277.053 108.887H292.746L318.271 187.792ZM295.201 154.891L288.529 134.287C287.823 132.182 286.495 127.226 284.549 119.423H284.312C283.529 122.779 282.278 127.736 280.564 134.287L274.005 154.891H295.201ZM383.497 158.644C383.497 168.32 380.87 175.969 375.609 181.584C370.9 186.582 365.047 189.078 358.066 189.078C350.529 189.078 345.108 186.392 341.816 181.009V210.862H329.172V149.596C329.172 143.519 329.012 137.287 328.704 130.896H339.824L340.529 139.914H340.767C344.983 133.119 351.383 129.722 359.97 129.722C366.684 129.722 372.288 132.372 376.772 137.679C381.25 142.997 383.497 149.982 383.497 158.644ZM370.616 159.107C370.616 153.569 369.37 149.003 366.868 145.404C364.134 141.663 360.462 139.789 355.86 139.789C352.741 139.789 349.906 140.833 347.373 142.89C344.835 144.966 343.174 147.675 342.398 151.031C342.051 152.286 341.854 153.578 341.81 154.879V164.372C341.81 168.504 343.08 171.997 345.618 174.854C348.156 177.7 351.454 179.129 355.51 179.129C360.273 179.129 363.979 177.285 366.63 173.627C369.287 169.957 370.616 165.119 370.616 159.107ZM448.955 158.644C448.955 168.32 446.327 175.969 441.067 181.584C436.352 186.582 430.504 189.078 423.518 189.078C415.98 189.078 410.559 186.392 407.268 181.009V210.862H394.623V149.596C394.623 143.519 394.463 137.287 394.155 130.896H405.275L405.981 139.914H406.218C410.429 133.119 416.828 129.722 425.421 129.722C432.129 129.722 437.734 132.372 442.229 137.679C446.701 142.997 448.955 149.982 448.955 158.644ZM436.067 159.107C436.067 153.569 434.816 149.003 432.313 145.404C429.579 141.663 425.92 139.789 421.317 139.789C418.198 139.789 415.363 140.833 412.819 142.89C410.28 144.966 408.626 147.675 407.849 151.031C407.463 152.596 407.256 153.871 407.256 154.879V164.372C407.256 168.504 408.531 171.997 411.057 174.854C413.596 177.694 416.893 179.129 420.962 179.129C425.73 179.129 429.437 177.285 432.082 173.627C434.739 169.957 436.067 165.119 436.067 159.107ZM522.139 165.658C522.139 172.376 519.791 177.837 515.123 182.052C509.987 186.653 502.817 188.96 493.625 188.96C485.132 188.96 478.323 187.323 473.187 184.045L476.111 173.508C481.656 176.793 487.747 178.43 494.378 178.43C499.146 178.43 502.853 177.351 505.498 175.21C508.149 173.064 509.489 170.194 509.489 166.613C509.489 163.405 508.38 160.719 506.204 158.531C504.015 156.35 500.397 154.316 495.315 152.448C481.496 147.296 474.581 139.76 474.581 129.846C474.581 123.372 477.025 118.071 481.9 113.927C486.775 109.788 493.239 107.719 501.281 107.719C508.463 107.719 514.447 108.97 519.198 111.466L516.025 121.771C511.553 119.352 506.506 118.142 500.86 118.142C496.4 118.142 492.901 119.239 490.398 121.421C488.293 123.372 487.225 125.749 487.225 128.572C487.225 131.684 488.441 134.269 490.861 136.297C492.96 138.165 496.792 140.199 502.331 142.38C509.127 145.12 514.121 148.31 517.318 151.974C520.538 155.638 522.139 160.209 522.139 165.658ZM564.052 140.382H550.115V168.006C550.115 175.032 552.57 178.536 557.492 178.536C559.752 178.536 561.626 178.347 563.109 177.949L563.459 187.549C560.968 188.48 557.688 188.948 553.626 188.948C548.632 188.948 544.73 187.424 541.912 184.377C539.107 181.329 537.696 176.224 537.696 169.038V140.359H529.393V130.872H537.696V120.455L550.115 116.707V130.872H564.052V140.382ZM626.811 158.875C626.811 167.621 624.308 174.801 619.314 180.416C614.089 186.197 607.138 189.078 598.474 189.078C590.111 189.078 583.463 186.309 578.505 180.778C573.547 175.234 571.068 168.249 571.068 159.824C571.068 151.007 573.63 143.786 578.736 138.171C583.854 132.55 590.746 129.74 599.411 129.74C607.761 129.74 614.469 132.514 619.545 138.052C624.397 143.424 626.811 150.361 626.811 158.875ZM613.704 159.166C613.704 153.954 612.577 149.484 610.317 145.742C607.666 141.224 603.871 138.965 598.954 138.965C593.889 138.965 590.005 141.224 587.359 145.742C585.094 149.484 583.967 154.031 583.967 159.403C583.967 164.621 585.094 169.103 587.359 172.833C590.094 177.351 593.907 179.61 598.847 179.61C603.681 179.61 607.47 177.303 610.21 172.72C612.535 168.89 613.704 164.389 613.704 159.166ZM667.928 142.013C666.613 141.776 665.279 141.658 663.943 141.663C659.495 141.663 656.055 143.335 653.635 146.703C651.536 149.667 650.48 153.415 650.48 157.939V187.792H637.836V148.814C637.847 142.841 637.724 136.869 637.468 130.902H648.481L648.944 141.788H649.294C650.634 138.046 652.734 135.028 655.616 132.769C658.254 130.795 661.46 129.726 664.755 129.722C665.924 129.722 666.979 129.805 667.916 129.953L667.928 142.013ZM724.477 156.652C724.509 158.574 724.355 160.494 724.015 162.385H686.082C686.224 168.006 688.063 172.311 691.586 175.275C694.782 177.92 698.916 179.248 703.993 179.248C709.609 179.248 714.733 178.358 719.341 176.562L721.322 185.331C715.937 187.679 709.579 188.847 702.243 188.847C693.418 188.847 686.491 186.25 681.45 181.068C676.421 175.88 673.9 168.907 673.9 160.174C673.9 151.6 676.243 144.456 680.934 138.758C685.845 132.674 692.481 129.633 700.832 129.633C709.034 129.633 715.243 132.674 719.46 138.758C722.799 143.578 724.477 149.555 724.477 156.652ZM712.42 153.373C712.509 149.62 711.679 146.389 709.965 143.655C707.777 140.133 704.408 138.378 699.895 138.378C695.761 138.378 692.392 140.092 689.83 143.531C687.725 146.264 686.473 149.549 686.088 153.361L712.42 153.373Z" fill="white"/>
<path d="M268.133 80.9899C264.616 80.9899 261.574 80.8179 259.042 80.5274V42.3793C262.583 41.8323 266.163 41.5627 269.746 41.573C284.247 41.573 290.925 48.7057 290.925 60.3328C290.925 73.7445 283.037 80.9899 268.133 80.9899ZM270.256 46.4645C268.299 46.4645 266.633 46.5831 265.251 46.8677V75.8671C265.998 75.9857 267.433 76.039 269.45 76.039C278.951 76.039 284.36 70.6317 284.36 60.5047C284.36 51.4746 279.467 46.4645 270.256 46.4645ZM311.736 81.2804C303.563 81.2804 298.267 75.1793 298.267 66.8963C298.267 58.2635 303.676 52.109 312.198 52.109C320.252 52.109 325.667 57.9196 325.667 66.4398C325.667 75.1793 320.086 81.2804 311.736 81.2804ZM311.973 56.6508C307.484 56.6508 304.607 60.8486 304.607 66.7184C304.607 72.4756 307.543 76.6735 311.914 76.6735C316.285 76.6735 319.22 72.1851 319.22 66.5999C319.22 60.9079 316.344 56.6508 311.973 56.6508ZM372.271 52.6842L363.523 80.646H357.823L354.2 68.5031C353.299 65.5329 352.548 62.519 351.952 59.473H351.833C351.377 62.5206 350.511 65.5741 349.592 68.5031L345.737 80.646H339.978L331.746 52.6842H338.133L341.3 65.9773C342.048 69.1434 342.676 72.1317 343.198 74.954H343.317C343.774 72.6001 344.521 69.6593 345.618 66.0366L349.592 52.6901H354.656L358.458 65.752C359.377 68.9181 360.124 72.025 360.706 74.9599H360.872C361.275 72.0843 361.91 69.0308 362.77 65.752L366.168 52.6901L372.271 52.6842ZM404.474 80.646H398.259V64.5899C398.259 59.645 396.361 57.1666 392.619 57.1666C388.936 57.1666 386.403 60.3328 386.403 64.0147V80.646H380.188V60.6766C380.188 58.2042 380.129 55.5539 379.957 52.6782H385.425L385.715 56.9947H385.887C387.56 54.0064 390.952 52.109 394.754 52.109C400.625 52.109 404.48 56.5974 404.48 63.9021L404.474 80.646ZM421.614 80.646H415.393V39.8535H421.614V80.646ZM444.275 81.2804C436.109 81.2804 430.807 75.1793 430.807 66.8963C430.807 58.2635 436.215 52.109 444.732 52.109C452.792 52.109 458.201 57.9196 458.201 66.4398C458.207 75.1793 452.62 81.2804 444.275 81.2804ZM444.507 56.6508C440.017 56.6508 437.141 60.8486 437.141 66.7184C437.141 72.4756 440.082 76.6735 444.441 76.6735C448.818 76.6735 451.748 72.1851 451.748 66.5999C451.754 60.9079 448.883 56.6508 444.507 56.6508ZM482.706 80.646L482.256 77.4265H482.089C480.192 80.0175 477.422 81.2804 473.911 81.2804C468.9 81.2804 465.341 77.7703 465.341 73.0508C465.341 66.1492 471.325 62.5799 481.686 62.5799V62.0641C481.686 58.3821 479.735 56.5381 475.88 56.5381C473.122 56.5381 470.703 57.2318 468.573 58.6133L467.31 54.5281C469.896 52.9154 473.122 52.109 476.912 52.109C484.219 52.109 487.907 55.963 487.907 63.6768V73.9757C487.907 76.798 488.032 78.9858 488.311 80.6519L482.706 80.646ZM481.852 66.7184C474.949 66.7184 471.485 68.3904 471.485 72.357C471.485 75.292 473.271 76.7268 475.75 76.7268C478.911 76.7268 481.852 74.3137 481.852 71.0348V66.7184ZM518.089 80.646L517.798 76.1576H517.626C515.841 79.5491 512.84 81.2804 508.647 81.2804C501.904 81.2804 496.91 75.3513 496.91 67.009C496.91 58.2635 502.088 52.1031 509.157 52.1031C512.899 52.1031 515.551 53.366 517.045 55.9037H517.17V39.8535H523.391V73.11C523.391 75.8137 523.456 78.3455 523.622 80.646H518.089ZM517.17 64.1926C517.17 60.2794 514.578 56.9413 510.622 56.9413C506.014 56.9413 503.197 61.0265 503.197 66.7777C503.197 72.4163 506.121 76.2762 510.498 76.2762C514.406 76.2762 517.17 72.8788 517.17 68.8529V64.1926ZM562.836 81.2804C554.669 81.2804 549.373 75.1793 549.373 66.8963C549.373 58.2635 554.782 52.109 563.299 52.109C571.358 52.109 576.767 57.9196 576.767 66.4398C576.773 75.1793 571.192 81.2804 562.836 81.2804ZM563.067 56.6508C558.584 56.6508 555.707 60.8486 555.707 66.7184C555.707 72.4756 558.643 76.6735 563.008 76.6735C567.385 76.6735 570.315 72.1851 570.315 66.5999C570.327 60.9079 567.45 56.6508 563.067 56.6508ZM610.193 80.646H603.971V64.5899C603.971 59.645 602.074 57.1666 598.331 57.1666C594.648 57.1666 592.122 60.3328 592.122 64.0147V80.646H585.901V60.6766C585.901 58.2042 585.841 55.5539 585.669 52.6782H591.137L591.428 56.9947H591.6C593.266 54.0064 596.665 52.1031 600.46 52.1031C606.332 52.1031 610.193 56.5915 610.193 63.8962V80.646ZM652.01 57.3445H645.172V70.9222C645.172 74.3789 646.37 76.1043 648.79 76.1043C649.887 76.1043 650.806 75.9857 651.548 75.8137L651.72 80.5333C650.516 80.9958 648.902 81.227 646.898 81.227C641.999 81.227 639.069 78.5233 639.069 71.444V57.3445H634.989V52.6842H639.069V47.5614L645.172 45.7174V52.6782H652.01V57.3445ZM684.914 80.646H678.704V64.7085C678.704 59.7043 676.812 57.1725 673.064 57.1725C669.844 57.1725 666.843 59.3604 666.843 63.7894V80.646H660.633V39.8535H666.843V56.6508H666.967C668.925 53.6032 671.759 52.1031 675.377 52.1031C681.296 52.1031 684.914 56.7041 684.914 64.0147V80.646ZM718.624 68.1592H699.972C700.09 73.4539 703.595 76.4422 708.785 76.4422C711.543 76.4422 714.081 75.9797 716.323 75.12L717.289 79.4364C714.644 80.5867 711.531 81.1618 707.907 81.1618C699.159 81.1618 693.982 75.6359 693.982 67.0683C693.982 58.4947 699.284 52.0497 707.207 52.0497C714.354 52.0497 718.837 57.3445 718.837 65.3429C718.878 66.2868 718.806 67.2321 718.624 68.1592ZM712.924 63.7301C712.924 59.4137 710.748 56.3662 706.774 56.3662C703.204 56.3662 700.381 59.473 699.978 63.7301H712.924Z" fill="white"/>
</g>
<defs>
<linearGradient id="paint0_linear_134_120" x1="586.896" y1="238.73" x2="586.896" y2="-616.368" gradientUnits="userSpaceOnUse">
<stop stop-color="#1A1A1A" stop-opacity="0.1"/>
<stop offset="0.123" stop-color="#212121" stop-opacity="0.151"/>
<stop offset="0.308" stop-color="#353535" stop-opacity="0.227"/>
<stop offset="0.532" stop-color="#575757" stop-opacity="0.318"/>
<stop offset="0.783" stop-color="#858585" stop-opacity="0.421"/>
<stop offset="1" stop-color="#B3B3B3" stop-opacity="0.51"/>
</linearGradient>
<clipPath id="clip0_134_120">
<rect width="800" height="240" fill="white"/>
</clipPath>
</defs>
</svg>
